#N canvas 3142 -278 1015 778 12;
#X obj 202 110 netreceive -u -b;
#X msg 308 47 listen 0;
#X obj 202 142 oscparse;
#X obj 202 174 list trim;
#X floatatom 414 343 7 0 0 0 - - -;
#X floatatom 202 346 7 0 0 0 - - -;
#X msg 202 314 \$1;
#X obj 202 263 route leftHaply rightHaply;
#X obj 252 434 rmstodb;
#X msg 414 311 \$1;
#X msg 202 47 listen 8002;
#X obj 202 512 speaker;
#X text 22 46 read OSC from Processing;
#X text 225 227 split messages based on left/right Haply;
#X text 103 344 pitch (left);
#X text 306 343 volume (right);
#X obj 399 544 speaker;
#X obj 473 495 rmstodb;
#X obj 161 433 osc~ 440;
#X obj 348 439 phasor~ 440;
#X obj 473 391 - 0.5;
#X obj 473 428 max 0;
#X obj 473 462 * 1;
#X connect 0 0 2 0;
#X connect 1 0 0 0;
#X connect 2 0 3 0;
#X connect 3 0 7 0;
#X connect 4 0 8 0;
#X connect 4 0 20 0;
#X connect 5 0 18 0;
#X connect 5 0 19 0;
#X connect 6 0 5 0;
#X connect 7 0 6 0;
#X connect 7 1 9 0;
#X connect 8 0 11 1;
#X connect 9 0 4 0;
#X connect 10 0 0 0;
#X connect 17 0 16 1;
#X connect 18 0 11 0;
#X connect 19 0 16 0;
#X connect 20 0 21 0;
#X connect 21 0 22 0;
#X connect 22 0 17 0;
#X coords 0 778 1 777 85 60 0;
